dataset
version=1
nRows=25
nColumns=39
inDegrees=no
endheader
time	sternoclavicular_r2	sternoclavicular_r3	unrotscap_r3	unrotscap_r2	acromioclavicular_r2	acromioclavicular_r3	acromioclavicular_r1	unrothum_r1	unrothum_r3	unrothum_r2	elv_angle	shoulder_elv	shoulder1_r2	shoulder_rot	elbow_flexion	pro_sup	deviation	flexion	cmc_abduction	cmc_flexion	mp_flexion	ip_flexion	mcp2_flexion	mcp2_abduction	pm2_flexion	md2_flexion	mcp3_flexion	mcp3_abduction	pm3_flexion	md3_flexion	mcp4_flexion	mcp4_abduction	pm4_flexion	md4_flexion	mcp5_flexion	mcp5_abduction	pm5_flexion	md5_flexion
2.780000	-0.059259	-0.246547	0.072337	0.109780	0.053946	0.280293	0.049089	0.041612	0.278877	0.052211	0.123341	0.027437	0.146525	0.146525	2.382115	1.287353	0.000000	0.000000	0.000000	0.000000	0.000000	0.000000	0.000000	0.000000	0.000000	0.000000	0.000000	0.000000	0.000000	0.000000	0.000000	0.000000	0.000000	0.000000	0.000000	0.000000	0.000000	0.000000
2.785000	-0.059273	-0.246505	0.072284	0.109672	0.053832	0.280314	0.049148	0.041755	0.278818	0.052026	0.123166	0.027437	0.146525	0.146525	2.381797	1.287383	0.000000	0.000000	0.000000	0.000000	0.000000	0.000000	0.000000	0.000000	0.000000	0.000000	0.000000	0.000000	0.000000	0.000000	0.000000	0.000000	0.000000	0.000000	0.000000	0.000000	0.000000	0.000000
2.790000	-0.059286	-0.246465	0.072231	0.109559	0.053711	0.280337	0.049207	0.041900	0.278760	0.051834	0.122985	0.027437	0.146525	0.146525	2.381521	1.287410	0.000000	0.000000	0.000000	0.000000	0.000000	0.000000	0.000000	0.000000	0.000000	0.000000	0.000000	0.000000	0.000000	0.000000	0.000000	0.000000	0.000000	0.000000	0.000000	0.000000	0.000000	0.000000
2.795000	-0.059298	-0.246427	0.072179	0.109441	0.053585	0.280362	0.049266	0.042045	0.278701	0.051637	0.122799	0.027437	0.146525	0.146525	2.381286	1.287435	0.000000	0.000000	0.000000	0.000000	0.000000	0.000000	0.000000	0.000000	0.000000	0.000000	0.000000	0.000000	0.000000	0.000000	0.000000	0.000000	0.000000	0.000000	0.000000	0.000000	0.000000	0.000000
2.800000	-0.059309	-0.246390	0.072128	0.109318	0.053453	0.280391	0.049326	0.042192	0.278644	0.051434	0.122607	0.027437	0.146525	0.146525	2.381093	1.287457	0.000000	0.000000	0.000000	0.000000	0.000000	0.000000	0.000000	0.000000	0.000000	0.000000	0.000000	0.000000	0.000000	0.000000	0.000000	0.000000	0.000000	0.000000	0.000000	0.000000	0.000000	0.000000
2.805000	-0.059319	-0.246356	0.072078	0.109191	0.053316	0.280422	0.049385	0.042339	0.278586	0.051225	0.122409	0.027437	0.146525	0.146525	2.380944	1.287476	0.000000	0.000000	0.000000	0.000000	0.000000	0.000000	0.000000	0.000000	0.000000	0.000000	0.000000	0.000000	0.000000	0.000000	0.000000	0.000000	0.000000	0.000000	0.000000	0.000000	0.000000	0.000000
2.810000	-0.059328	-0.246323	0.072029	0.109059	0.053174	0.280455	0.049444	0.042488	0.278530	0.051010	0.122207	0.027437	0.146525	0.146525	2.380838	1.287492	0.000000	0.000000	0.000000	0.000000	0.000000	0.000000	0.000000	0.000000	0.000000	0.000000	0.000000	0.000000	0.000000	0.000000	0.000000	0.000000	0.000000	0.000000	0.000000	0.000000	0.000000	0.000000
2.815000	-0.059336	-0.246292	0.071980	0.108922	0.053026	0.280492	0.049504	0.042638	0.278473	0.050790	0.121999	0.027437	0.146525	0.146525	2.380777	1.287506	0.000000	0.000000	0.000000	0.000000	0.000000	0.000000	0.000000	0.000000	0.000000	0.000000	0.000000	0.000000	0.000000	0.000000	0.000000	0.000000	0.000000	0.000000	0.000000	0.000000	0.000000	0.000000
2.820000	-0.059343	-0.246264	0.071933	0.108781	0.052874	0.280531	0.049563	0.042789	0.278418	0.050564	0.121786	0.027437	0.146525	0.146525	2.380761	1.287517	0.000000	0.000000	0.000000	0.000000	0.000000	0.000000	0.000000	0.000000	0.000000	0.000000	0.000000	0.000000	0.000000	0.000000	0.000000	0.000000	0.000000	0.000000	0.000000	0.000000	0.000000	0.000000
2.825000	-0.059349	-0.246237	0.071887	0.108636	0.052717	0.280574	0.049622	0.042941	0.278363	0.050333	0.121568	0.027437	0.146525	0.146525	2.380790	1.287525	0.000000	0.000000	0.000000	0.000000	0.000000	0.000000	0.000000	0.000000	0.000000	0.000000	0.000000	0.000000	0.000000	0.000000	0.000000	0.000000	0.000000	0.000000	0.000000	0.000000	0.000000	0.000000
2.830000	-0.059354	-0.246213	0.071842	0.108487	0.052555	0.280619	0.049681	0.043095	0.278308	0.050097	0.121346	0.027437	0.146525	0.146525	2.380864	1.287531	0.000000	0.000000	0.000000	0.000000	0.000000	0.000000	0.000000	0.000000	0.000000	0.000000	0.000000	0.000000	0.000000	0.000000	0.000000	0.000000	0.000000	0.000000	0.000000	0.000000	0.000000	0.000000
2.835000	-0.059357	-0.246192	0.071798	0.108334	0.052388	0.280667	0.049740	0.043249	0.278254	0.049855	0.121120	0.027437	0.146525	0.146525	2.380984	1.287534	0.000000	0.000000	0.000000	0.000000	0.000000	0.000000	0.000000	0.000000	0.000000	0.000000	0.000000	0.000000	0.000000	0.000000	0.000000	0.000000	0.000000	0.000000	0.000000	0.000000	0.000000	0.000000
2.840000	-0.059360	-0.246172	0.071756	0.108177	0.052218	0.280718	0.049799	0.043406	0.278200	0.049609	0.120888	0.027437	0.146525	0.146525	2.381149	1.287534	0.000000	0.000000	0.000000	0.000000	0.000000	0.000000	0.000000	0.000000	0.000000	0.000000	0.000000	0.000000	0.000000	0.000000	0.000000	0.000000	0.000000	0.000000	0.000000	0.000000	0.000000	0.000000
2.845000	-0.059361	-0.246155	0.071714	0.108017	0.052043	0.280771	0.049857	0.043563	0.278147	0.049359	0.120653	0.027437	0.146525	0.146525	2.381358	1.287532	0.000000	0.000000	0.000000	0.000000	0.000000	0.000000	0.000000	0.000000	0.000000	0.000000	0.000000	0.000000	0.000000	0.000000	0.000000	0.000000	0.000000	0.000000	0.000000	0.000000	0.000000	0.000000
2.850000	-0.059361	-0.246141	0.071674	0.107854	0.051864	0.280827	0.049916	0.043722	0.278094	0.049104	0.120414	0.027437	0.146525	0.146525	2.381612	1.287528	0.000000	0.000000	0.000000	0.000000	0.000000	0.000000	0.000000	0.000000	0.000000	0.000000	0.000000	0.000000	0.000000	0.000000	0.000000	0.000000	0.000000	0.000000	0.000000	0.000000	0.000000	0.000000
2.855000	-0.059359	-0.246129	0.071636	0.107688	0.051681	0.280886	0.049974	0.043882	0.278042	0.048845	0.120171	0.027437	0.146525	0.146525	2.381910	1.287521	0.000000	0.000000	0.000000	0.000000	0.000000	0.000000	0.000000	0.000000	0.000000	0.000000	0.000000	0.000000	0.000000	0.000000	0.000000	0.000000	0.000000	0.000000	0.000000	0.000000	0.000000	0.000000
2.860000	-0.059357	-0.246119	0.071598	0.107518	0.051495	0.280948	0.050031	0.044044	0.277990	0.048581	0.119924	0.027437	0.146525	0.146525	2.382251	1.287512	0.000000	0.000000	0.000000	0.000000	0.000000	0.000000	0.000000	0.000000	0.000000	0.000000	0.000000	0.000000	0.000000	0.000000	0.000000	0.000000	0.000000	0.000000	0.000000	0.000000	0.000000	0.000000
2.865000	-0.059353	-0.246113	0.071563	0.107346	0.051306	0.281012	0.050088	0.044208	0.277938	0.048314	0.119674	0.027437	0.146525	0.146525	2.382634	1.287501	0.000000	0.000000	0.000000	0.000000	0.000000	0.000000	0.000000	0.000000	0.000000	0.000000	0.000000	0.000000	0.000000	0.000000	0.000000	0.000000	0.000000	0.000000	0.000000	0.000000	0.000000	0.000000
2.870000	-0.059348	-0.246108	0.071528	0.107171	0.051113	0.281079	0.050145	0.044373	0.277886	0.048044	0.119421	0.027437	0.146525	0.146525	2.383059	1.287487	0.000000	0.000000	0.000000	0.000000	0.000000	0.000000	0.000000	0.000000	0.000000	0.000000	0.000000	0.000000	0.000000	0.000000	0.000000	0.000000	0.000000	0.000000	0.000000	0.000000	0.000000	0.000000
2.875000	-0.059342	-0.246107	0.071496	0.106994	0.050918	0.281148	0.050201	0.044539	0.277835	0.047769	0.119164	0.027437	0.146525	0.146525	2.383524	1.287471	0.000000	0.000000	0.000000	0.000000	0.000000	0.000000	0.000000	0.000000	0.000000	0.000000	0.000000	0.000000	0.000000	0.000000	0.000000	0.000000	0.000000	0.000000	0.000000	0.000000	0.000000	0.000000
2.880000	-0.059334	-0.246108	0.071464	0.106815	0.050720	0.281220	0.050257	0.044707	0.277783	0.047492	0.118905	0.027437	0.146525	0.146525	2.384029	1.287454	0.000000	0.000000	0.000000	0.000000	0.000000	0.000000	0.000000	0.000000	0.000000	0.000000	0.000000	0.000000	0.000000	0.000000	0.000000	0.000000	0.000000	0.000000	0.000000	0.000000	0.000000	0.000000
2.885000	-0.059325	-0.246112	0.071435	0.106634	0.050520	0.281294	0.050312	0.044876	0.277731	0.047212	0.118643	0.027437	0.146525	0.146525	2.384571	1.287434	0.000000	0.000000	0.000000	0.000000	0.000000	0.000000	0.000000	0.000000	0.000000	0.000000	0.000000	0.000000	0.000000	0.000000	0.000000	0.000000	0.000000	0.000000	0.000000	0.000000	0.000000	0.000000
2.890000	-0.059315	-0.246118	0.071407	0.106452	0.050317	0.281370	0.050366	0.045047	0.277679	0.046930	0.118379	0.027437	0.146525	0.146525	2.385149	1.287413	0.000000	0.000000	0.000000	0.000000	0.000000	0.000000	0.000000	0.000000	0.000000	0.000000	0.000000	0.000000	0.000000	0.000000	0.000000	0.000000	0.000000	0.000000	0.000000	0.000000	0.000000	0.000000
2.895000	-0.059304	-0.246128	0.071380	0.106268	0.050113	0.281448	0.050419	0.045219	0.277627	0.046645	0.118113	0.027437	0.146525	0.146525	2.385762	1.287390	0.000000	0.000000	0.000000	0.000000	0.000000	0.000000	0.000000	0.000000	0.000000	0.000000	0.000000	0.000000	0.000000	0.000000	0.000000	0.000000	0.000000	0.000000	0.000000	0.000000	0.000000	0.000000
2.900000	-0.059292	-0.246140	0.071355	0.106083	0.049907	0.281528	0.050472	0.045393	0.277575	0.046358	0.117845	0.027437	0.146525	0.146525	2.386409	1.287365	0.000000	0.000000	0.000000	0.000000	0.000000	0.000000	0.000000	0.000000	0.000000	0.000000	0.000000	0.000000	0.000000	0.000000	0.000000	0.000000	0.000000	0.000000	0.000000	0.000000	0.000000	0.000000
